<svg width="412" height="519" viewBox="0 0 412 519" fill="none" xmlns="http://www.w3.org/2000/svg">
<g filter="url(#filter0_d_349_239)">
<rect x="6" y="2" width="400" height="507" rx="34" fill="url(#paint0_linear_349_239)"/>
<rect x="6.5" y="2.5" width="399" height="506" rx="33.5" stroke="#B5E7FE"/>
<g clip-path="url(#clip0_349_239)">
<path d="M357.887 456.742C356.724 455.627 355.146 455 353.5 455C351.854 455 350.276 455.627 349.113 456.742C347.949 457.857 347.295 459.37 347.295 460.948C347.295 462.525 347.949 464.038 349.113 465.153C350.276 466.268 351.854 466.895 353.5 466.895C355.146 466.895 356.724 466.268 357.887 465.153C359.051 464.038 359.705 462.525 359.705 460.948C359.705 459.37 359.051 457.857 357.887 456.742Z" stroke="#A3B6C5" stroke-width="2.2" stroke-linecap="round"/>
<path d="M353.5 470.555C347.295 470.555 343 473.757 343 480.62H364C364 473.757 359.705 470.555 353.5 470.555Z" stroke="#A3B6C5" stroke-width="2.2" stroke-linecap="round"/>
</g>
<g clip-path="url(#clip1_349_239)">
<path d="M62.8873 456.742C61.7237 455.627 60.1455 455 58.5 455C56.8545 455 55.2763 455.627 54.1127 456.742C52.9491 457.857 52.2955 459.37 52.2955 460.948C52.2955 462.525 52.9491 464.038 54.1127 465.153C55.2763 466.268 56.8545 466.895 58.5 466.895C60.1455 466.895 61.7237 466.268 62.8873 465.153C64.0509 464.038 64.7045 462.525 64.7045 460.948C64.7045 459.37 64.0509 457.857 62.8873 456.742Z" stroke="#A3B6C5" stroke-width="2.2" stroke-linecap="round"/>
<path d="M58.5 470.555C52.2955 470.555 48 473.757 48 480.62H69C69 473.757 64.7045 470.555 58.5 470.555Z" stroke="#A3B6C5" stroke-width="2.2" stroke-linecap="round"/>
</g>
<path d="M211.014 244.991C209.684 243.716 207.881 243 206 243C204.119 243 202.316 243.716 200.986 244.991C199.656 246.266 198.909 247.994 198.909 249.797C198.909 251.6 199.656 253.329 200.986 254.603C202.316 255.878 204.119 256.594 206 256.594C207.881 256.594 209.684 255.878 211.014 254.603C212.344 253.329 213.091 251.6 213.091 249.797C213.091 247.994 212.344 246.266 211.014 244.991Z" stroke="#475569" stroke-width="3" stroke-linecap="round"/>
<path d="M206 260.777C198.909 260.777 194 264.437 194 272.28H218C218 264.437 213.091 260.777 206 260.777Z" stroke="#475569" stroke-width="3" stroke-linecap="round"/>
<circle cx="206" cy="259" r="33.5" fill="#F1F5F9" stroke="#D3DEEC"/>
<path d="M196 63.25L201.588 69.5L215 54.5" stroke="white" stroke-width="4" stroke-linecap="round"/>
<g filter="url(#filter1_d_349_239)">
<path d="M196 354H216V401C216 403.652 214.946 406.196 213.071 408.071C211.196 409.946 208.652 411 206 411C203.348 411 200.804 409.946 198.929 408.071C197.054 406.196 196 403.652 196 401V354Z" fill="#334155"/>
</g>
<g filter="url(#filter2_d_349_239)">
<circle cx="206" cy="272.5" r="103.5" fill="white"/>
<circle cx="206" cy="272.5" r="98.5" stroke="#334155" stroke-width="10"/>
</g>
<g filter="url(#filter3_d_349_239)">
<circle cx="206" cy="62.5" r="25.5" fill="#FFBF18"/>
</g>
<g clip-path="url(#clip2_349_239)">
<path d="M216.381 52.2858C217.052 52.7733 217.202 53.7108 216.714 54.3811L204.714 70.8811C204.456 71.2374 204.058 71.4577 203.617 71.4952C203.177 71.5327 202.75 71.3686 202.441 71.0593L196.441 65.0593C195.855 64.4733 195.855 63.5218 196.441 62.9358C197.027 62.3499 197.978 62.3499 198.564 62.9358L203.322 67.6936L214.291 52.614C214.778 51.9436 215.716 51.7936 216.386 52.2811L216.381 52.2858Z" fill="white"/>
</g>
<path d="M152.539 305.992H153.969C153.969 306.753 153.867 307.398 153.664 307.93C153.461 308.456 153.117 308.857 152.633 309.133C152.154 309.409 151.497 309.547 150.664 309.547V308.375C151.216 308.375 151.625 308.281 151.891 308.094C152.156 307.906 152.331 307.635 152.414 307.281C152.497 306.927 152.539 306.497 152.539 305.992ZM148.828 306.625H150.977V314.18C150.977 315.049 150.789 315.781 150.414 316.375C150.039 316.964 149.529 317.409 148.883 317.711C148.237 318.008 147.503 318.156 146.68 318.156C145.846 318.156 145.104 318.008 144.453 317.711C143.802 317.409 143.292 316.964 142.922 316.375C142.552 315.781 142.367 315.049 142.367 314.18V306.625H144.516V314.18C144.516 314.711 144.604 315.146 144.781 315.484C144.958 315.818 145.208 316.065 145.531 316.227C145.854 316.388 146.237 316.469 146.68 316.469C147.128 316.469 147.51 316.388 147.828 316.227C148.151 316.065 148.398 315.818 148.57 315.484C148.742 315.146 148.828 314.711 148.828 314.18V306.625ZM145.961 305.859L147.492 303.484H149.773L147.641 305.859H145.961ZM155.711 311.352V318H153.648V309.547H155.586L155.711 311.352ZM155.383 313.469H154.773C154.779 312.854 154.862 312.297 155.023 311.797C155.185 311.297 155.411 310.867 155.703 310.508C156 310.148 156.352 309.872 156.758 309.68C157.164 309.487 157.617 309.391 158.117 309.391C158.523 309.391 158.891 309.448 159.219 309.562C159.547 309.677 159.828 309.859 160.062 310.109C160.302 310.359 160.484 310.688 160.609 311.094C160.74 311.495 160.805 311.99 160.805 312.578V318H158.727V312.562C158.727 312.177 158.669 311.872 158.555 311.648C158.445 311.424 158.284 311.266 158.07 311.172C157.862 311.078 157.604 311.031 157.297 311.031C156.979 311.031 156.701 311.096 156.461 311.227C156.227 311.352 156.029 311.526 155.867 311.75C155.711 311.974 155.591 312.232 155.508 312.523C155.424 312.815 155.383 313.13 155.383 313.469ZM168 309.547H169.875V317.742C169.875 318.508 169.708 319.156 169.375 319.688C169.047 320.224 168.586 320.63 167.992 320.906C167.398 321.188 166.708 321.328 165.922 321.328C165.583 321.328 165.216 321.281 164.82 321.188C164.43 321.094 164.052 320.945 163.688 320.742C163.328 320.544 163.029 320.286 162.789 319.969L163.719 318.75C164 319.078 164.318 319.326 164.672 319.492C165.026 319.664 165.409 319.75 165.82 319.75C166.237 319.75 166.591 319.672 166.883 319.516C167.18 319.365 167.406 319.141 167.562 318.844C167.724 318.552 167.805 318.193 167.805 317.766V311.477L168 309.547ZM162.289 313.875V313.711C162.289 313.065 162.367 312.479 162.523 311.953C162.68 311.422 162.904 310.966 163.195 310.586C163.492 310.206 163.849 309.911 164.266 309.703C164.688 309.495 165.161 309.391 165.688 309.391C166.245 309.391 166.714 309.492 167.094 309.695C167.479 309.898 167.797 310.188 168.047 310.562C168.302 310.938 168.5 311.383 168.641 311.898C168.786 312.409 168.898 312.971 168.977 313.586V314.031C168.904 314.63 168.786 315.18 168.625 315.68C168.469 316.18 168.26 316.617 168 316.992C167.74 317.362 167.417 317.648 167.031 317.852C166.646 318.055 166.193 318.156 165.672 318.156C165.151 318.156 164.682 318.049 164.266 317.836C163.849 317.622 163.492 317.323 163.195 316.938C162.904 316.552 162.68 316.099 162.523 315.578C162.367 315.057 162.289 314.49 162.289 313.875ZM164.352 313.711V313.875C164.352 314.24 164.388 314.581 164.461 314.898C164.534 315.216 164.646 315.497 164.797 315.742C164.948 315.982 165.138 316.169 165.367 316.305C165.596 316.44 165.87 316.508 166.188 316.508C166.615 316.508 166.964 316.419 167.234 316.242C167.51 316.06 167.719 315.812 167.859 315.5C168.005 315.182 168.099 314.826 168.141 314.43V313.203C168.115 312.891 168.057 312.602 167.969 312.336C167.885 312.07 167.768 311.841 167.617 311.648C167.466 311.456 167.273 311.305 167.039 311.195C166.805 311.086 166.526 311.031 166.203 311.031C165.891 311.031 165.617 311.102 165.383 311.242C165.148 311.378 164.956 311.568 164.805 311.812C164.654 312.057 164.539 312.341 164.461 312.664C164.388 312.987 164.352 313.336 164.352 313.711ZM179.875 315.773L182.711 306.625H185.094L181.078 318H179.492L179.875 315.773ZM177.258 306.625L180.078 315.773L180.484 318H178.883L174.883 306.625H177.258ZM188.297 309.547V318H186.227V309.547H188.297ZM186.086 307.336C186.086 307.029 186.19 306.773 186.398 306.57C186.612 306.367 186.898 306.266 187.258 306.266C187.617 306.266 187.901 306.367 188.109 306.57C188.323 306.773 188.43 307.029 188.43 307.336C188.43 307.638 188.323 307.891 188.109 308.094C187.901 308.297 187.617 308.398 187.258 308.398C186.898 308.398 186.612 308.297 186.398 308.094C186.19 307.891 186.086 307.638 186.086 307.336ZM194.062 318.156C193.422 318.156 192.846 318.052 192.336 317.844C191.826 317.635 191.391 317.346 191.031 316.977C190.677 316.602 190.404 316.167 190.211 315.672C190.023 315.172 189.93 314.635 189.93 314.062V313.75C189.93 313.099 190.023 312.508 190.211 311.977C190.398 311.44 190.664 310.979 191.008 310.594C191.352 310.208 191.763 309.911 192.242 309.703C192.721 309.495 193.25 309.391 193.828 309.391C194.427 309.391 194.956 309.492 195.414 309.695C195.872 309.893 196.255 310.174 196.562 310.539C196.87 310.904 197.102 311.341 197.258 311.852C197.414 312.357 197.492 312.917 197.492 313.531V314.398H190.867V312.977H195.461V312.82C195.451 312.492 195.388 312.193 195.273 311.922C195.159 311.646 194.982 311.427 194.742 311.266C194.503 311.099 194.193 311.016 193.812 311.016C193.505 311.016 193.237 311.083 193.008 311.219C192.784 311.349 192.596 311.536 192.445 311.781C192.299 312.021 192.19 312.307 192.117 312.641C192.044 312.974 192.008 313.344 192.008 313.75V314.062C192.008 314.417 192.055 314.745 192.148 315.047C192.247 315.349 192.391 315.612 192.578 315.836C192.771 316.055 193 316.227 193.266 316.352C193.536 316.471 193.844 316.531 194.188 316.531C194.62 316.531 195.01 316.448 195.359 316.281C195.714 316.109 196.021 315.857 196.281 315.523L197.32 316.602C197.143 316.862 196.904 317.112 196.602 317.352C196.305 317.591 195.945 317.786 195.523 317.938C195.102 318.083 194.615 318.156 194.062 318.156ZM194.227 305.992L196.492 308.156V308.25H194.836L193.625 307.062L192.422 308.25H190.789V308.141L193.023 305.992H194.227ZM200.898 311.352V318H198.836V309.547H200.773L200.898 311.352ZM200.57 313.469H199.961C199.966 312.854 200.049 312.297 200.211 311.797C200.372 311.297 200.599 310.867 200.891 310.508C201.188 310.148 201.539 309.872 201.945 309.68C202.352 309.487 202.805 309.391 203.305 309.391C203.711 309.391 204.078 309.448 204.406 309.562C204.734 309.677 205.016 309.859 205.25 310.109C205.49 310.359 205.672 310.688 205.797 311.094C205.927 311.495 205.992 311.99 205.992 312.578V318H203.914V312.562C203.914 312.177 203.857 311.872 203.742 311.648C203.633 311.424 203.471 311.266 203.258 311.172C203.049 311.078 202.792 311.031 202.484 311.031C202.167 311.031 201.888 311.096 201.648 311.227C201.414 311.352 201.216 311.526 201.055 311.75C200.898 311.974 200.779 312.232 200.695 312.523C200.612 312.815 200.57 313.13 200.57 313.469ZM216.328 313.852H213.398V312.164H216.328C216.807 312.164 217.195 312.086 217.492 311.93C217.794 311.768 218.016 311.549 218.156 311.273C218.297 310.992 218.367 310.672 218.367 310.312C218.367 309.964 218.297 309.638 218.156 309.336C218.016 309.034 217.794 308.789 217.492 308.602C217.195 308.414 216.807 308.32 216.328 308.32H214.102V318H211.953V306.625H216.328C217.214 306.625 217.969 306.784 218.594 307.102C219.224 307.414 219.703 307.849 220.031 308.406C220.365 308.958 220.531 309.589 220.531 310.297C220.531 311.031 220.365 311.664 220.031 312.195C219.703 312.727 219.224 313.135 218.594 313.422C217.969 313.708 217.214 313.852 216.328 313.852ZM224.086 306V318H222.016V306H224.086ZM223.758 313.469H223.148C223.148 312.88 223.227 312.339 223.383 311.844C223.539 311.349 223.76 310.919 224.047 310.555C224.333 310.185 224.674 309.898 225.07 309.695C225.471 309.492 225.914 309.391 226.398 309.391C226.815 309.391 227.193 309.451 227.531 309.57C227.875 309.685 228.169 309.87 228.414 310.125C228.659 310.38 228.846 310.714 228.977 311.125C229.112 311.531 229.18 312.026 229.18 312.609V318H227.102V312.594C227.102 312.203 227.044 311.896 226.93 311.672C226.815 311.443 226.651 311.279 226.438 311.18C226.229 311.081 225.971 311.031 225.664 311.031C225.331 311.031 225.044 311.096 224.805 311.227C224.565 311.352 224.367 311.526 224.211 311.75C224.06 311.974 223.945 312.232 223.867 312.523C223.794 312.815 223.758 313.13 223.758 313.469ZM236.031 315.992V309.547H238.109V318H236.156L236.031 315.992ZM236.297 314.242L236.938 314.227C236.938 314.794 236.875 315.318 236.75 315.797C236.625 316.276 236.43 316.693 236.164 317.047C235.904 317.396 235.573 317.669 235.172 317.867C234.771 318.06 234.297 318.156 233.75 318.156C233.333 318.156 232.953 318.099 232.609 317.984C232.266 317.865 231.969 317.68 231.719 317.43C231.474 317.174 231.284 316.849 231.148 316.453C231.013 316.052 230.945 315.57 230.945 315.008V309.547H233.008V315.023C233.008 315.305 233.039 315.539 233.102 315.727C233.169 315.914 233.26 316.068 233.375 316.188C233.495 316.302 233.633 316.385 233.789 316.438C233.951 316.484 234.122 316.508 234.305 316.508C234.805 316.508 235.198 316.409 235.484 316.211C235.776 316.008 235.984 315.737 236.109 315.398C236.234 315.055 236.297 314.669 236.297 314.242ZM234.047 306L235.578 308.375H233.867L231.758 306H234.047ZM251.625 311.32V313.008H245.641V311.32H251.625ZM246.227 306.625V318H244.078V306.625H246.227ZM253.219 306.625V318H251.07V306.625H253.219ZM262.438 308.719H263.742C263.742 309.328 263.651 309.852 263.469 310.289C263.286 310.727 262.995 311.062 262.594 311.297C262.198 311.531 261.674 311.648 261.023 311.648V310.703C261.419 310.703 261.716 310.622 261.914 310.461C262.117 310.299 262.255 310.07 262.328 309.773C262.401 309.471 262.438 309.12 262.438 308.719ZM254.867 313.859V313.695C254.867 313.076 254.956 312.505 255.133 311.984C255.31 311.458 255.568 311.003 255.906 310.617C256.25 310.232 256.667 309.932 257.156 309.719C257.646 309.5 258.203 309.391 258.828 309.391C259.464 309.391 260.026 309.5 260.516 309.719C261.01 309.932 261.427 310.232 261.766 310.617C262.104 311.003 262.362 311.458 262.539 311.984C262.716 312.505 262.805 313.076 262.805 313.695V313.859C262.805 314.474 262.716 315.044 262.539 315.57C262.362 316.091 262.104 316.547 261.766 316.938C261.427 317.323 261.013 317.622 260.523 317.836C260.034 318.049 259.474 318.156 258.844 318.156C258.214 318.156 257.651 318.049 257.156 317.836C256.667 317.622 256.25 317.323 255.906 316.938C255.568 316.547 255.31 316.091 255.133 315.57C254.956 315.044 254.867 314.474 254.867 313.859ZM256.938 313.695V313.859C256.938 314.229 256.974 314.576 257.047 314.898C257.12 315.221 257.232 315.505 257.383 315.75C257.534 315.995 257.729 316.188 257.969 316.328C258.214 316.464 258.505 316.531 258.844 316.531C259.177 316.531 259.464 316.464 259.703 316.328C259.943 316.188 260.138 315.995 260.289 315.75C260.44 315.505 260.552 315.221 260.625 314.898C260.698 314.576 260.734 314.229 260.734 313.859V313.695C260.734 313.331 260.698 312.99 260.625 312.672C260.552 312.349 260.44 312.065 260.289 311.82C260.138 311.57 259.94 311.375 259.695 311.234C259.456 311.089 259.167 311.016 258.828 311.016C258.495 311.016 258.208 311.089 257.969 311.234C257.729 311.375 257.534 311.57 257.383 311.82C257.232 312.065 257.12 312.349 257.047 312.672C256.974 312.99 256.938 313.331 256.938 313.695ZM257.648 319.938C257.648 319.651 257.753 319.411 257.961 319.219C258.174 319.026 258.461 318.93 258.82 318.93C259.18 318.93 259.464 319.026 259.672 319.219C259.885 319.411 259.992 319.651 259.992 319.938C259.992 320.219 259.885 320.453 259.672 320.641C259.464 320.833 259.18 320.93 258.82 320.93C258.461 320.93 258.174 320.833 257.961 320.641C257.753 320.453 257.648 320.219 257.648 319.938ZM266.578 311.172V321.25H264.508V309.547H266.422L266.578 311.172ZM272.008 313.688V313.852C272.008 314.466 271.935 315.036 271.789 315.562C271.648 316.083 271.44 316.539 271.164 316.93C270.888 317.315 270.544 317.617 270.133 317.836C269.727 318.049 269.258 318.156 268.727 318.156C268.206 318.156 267.753 318.057 267.367 317.859C266.982 317.656 266.656 317.37 266.391 317C266.125 316.63 265.911 316.201 265.75 315.711C265.594 315.216 265.477 314.677 265.398 314.094V313.57C265.477 312.951 265.594 312.388 265.75 311.883C265.911 311.372 266.125 310.932 266.391 310.562C266.656 310.188 266.979 309.898 267.359 309.695C267.745 309.492 268.195 309.391 268.711 309.391C269.247 309.391 269.719 309.492 270.125 309.695C270.536 309.898 270.883 310.19 271.164 310.57C271.445 310.951 271.656 311.404 271.797 311.93C271.938 312.456 272.008 313.042 272.008 313.688ZM269.938 313.852V313.688C269.938 313.312 269.904 312.966 269.836 312.648C269.768 312.326 269.664 312.044 269.523 311.805C269.383 311.56 269.201 311.37 268.977 311.234C268.753 311.099 268.482 311.031 268.164 311.031C267.846 311.031 267.573 311.083 267.344 311.188C267.115 311.292 266.927 311.44 266.781 311.633C266.635 311.826 266.521 312.055 266.438 312.32C266.359 312.581 266.307 312.87 266.281 313.188V314.484C266.328 314.87 266.419 315.216 266.555 315.523C266.69 315.831 266.888 316.076 267.148 316.258C267.414 316.44 267.758 316.531 268.18 316.531C268.497 316.531 268.768 316.461 268.992 316.32C269.216 316.18 269.398 315.987 269.539 315.742C269.68 315.492 269.781 315.206 269.844 314.883C269.906 314.56 269.938 314.216 269.938 313.852Z" fill="#1B3B6F"/>
<rect x="174" y="229" width="64" height="64" rx="32" fill="#ECF5F9"/>
<rect x="174" y="229" width="64" height="64" rx="32" stroke="#CCD6E2" stroke-width="2"/>
<path d="M201.679 252.25C201.679 250.882 202.187 249.571 203.091 248.604C203.995 247.637 205.221 247.094 206.5 247.094C207.779 247.094 209.005 247.637 209.909 248.604C210.813 249.571 211.321 250.882 211.321 252.25C211.321 253.618 210.813 254.929 209.909 255.896C209.005 256.863 207.779 257.406 206.5 257.406C205.221 257.406 203.995 256.863 203.091 255.896C202.187 254.929 201.679 253.618 201.679 252.25ZM214.214 252.25C214.214 250.062 213.402 247.964 211.955 246.416C210.508 244.869 208.546 244 206.5 244C204.454 244 202.492 244.869 201.045 246.416C199.598 247.964 198.786 250.062 198.786 252.25C198.786 254.438 199.598 256.536 201.045 258.084C202.492 259.631 204.454 260.5 206.5 260.5C208.546 260.5 210.508 259.631 211.955 258.084C213.402 256.536 214.214 254.438 214.214 252.25ZM195.893 274.938C195.893 270.381 199.346 266.688 203.607 266.688H209.393C213.654 266.688 217.107 270.381 217.107 274.938V275.453C217.107 276.31 217.752 277 218.554 277C219.355 277 220 276.31 220 275.453V274.938C220 268.673 215.251 263.594 209.393 263.594H203.607C197.749 263.594 193 268.673 193 274.938V275.453C193 276.31 193.645 277 194.446 277C195.248 277 195.893 276.31 195.893 275.453V274.938Z" fill="#64748B"/>
</g>
<defs>
<filter id="filter0_d_349_239" x="0" y="0" width="412" height="519" filterUnits="userSpaceOnUse" color-interpolation-filters="sRGB">
<feFlood flood-opacity="0" result="BackgroundImageFix"/>
<feColorMatrix in="SourceAlpha" type="matrix" values="0 0 0 0 0 0 0 0 0 0 0 0 0 0 0 0 0 0 127 0" result="hardAlpha"/>
<feOffset dy="4"/>
<feGaussianBlur stdDeviation="3"/>
<feComposite in2="hardAlpha" operator="out"/>
<feColorMatrix type="matrix" values="0 0 0 0 0.2 0 0 0 0 0.254902 0 0 0 0 0.333333 0 0 0 0.12549 0"/>
<feBlend mode="normal" in2="BackgroundImageFix" result="effect1_dropShadow_349_239"/>
<feBlend mode="normal" in="SourceGraphic" in2="effect1_dropShadow_349_239" result="shape"/>
</filter>
<filter id="filter1_d_349_239" x="191" y="353" width="30" height="67" filterUnits="userSpaceOnUse" color-interpolation-filters="sRGB">
<feFlood flood-opacity="0" result="BackgroundImageFix"/>
<feColorMatrix in="SourceAlpha" type="matrix" values="0 0 0 0 0 0 0 0 0 0 0 0 0 0 0 0 0 0 127 0" result="hardAlpha"/>
<feOffset dy="4"/>
<feGaussianBlur stdDeviation="2.5"/>
<feComposite in2="hardAlpha" operator="out"/>
<feColorMatrix type="matrix" values="0 0 0 0 0.2 0 0 0 0 0.254902 0 0 0 0 0.333333 0 0 0 0.145098 0"/>
<feBlend mode="normal" in2="BackgroundImageFix" result="effect1_dropShadow_349_239"/>
<feBlend mode="normal" in="SourceGraphic" in2="effect1_dropShadow_349_239" result="shape"/>
</filter>
<filter id="filter2_d_349_239" x="84.5" y="164" width="243" height="243" filterUnits="userSpaceOnUse" color-interpolation-filters="sRGB">
<feFlood flood-opacity="0" result="BackgroundImageFix"/>
<feColorMatrix in="SourceAlpha" type="matrix" values="0 0 0 0 0 0 0 0 0 0 0 0 0 0 0 0 0 0 127 0" result="hardAlpha"/>
<feOffset dy="13"/>
<feGaussianBlur stdDeviation="9"/>
<feComposite in2="hardAlpha" operator="out"/>
<feColorMatrix type="matrix" values="0 0 0 0 0.2 0 0 0 0 0.254902 0 0 0 0 0.333333 0 0 0 0.141176 0"/>
<feBlend mode="normal" in2="BackgroundImageFix" result="effect1_dropShadow_349_239"/>
<feBlend mode="normal" in="SourceGraphic" in2="effect1_dropShadow_349_239" result="shape"/>
</filter>
<filter id="filter3_d_349_239" x="174.5" y="35" width="63" height="63" filterUnits="userSpaceOnUse" color-interpolation-filters="sRGB">
<feFlood flood-opacity="0" result="BackgroundImageFix"/>
<feColorMatrix in="SourceAlpha" type="matrix" values="0 0 0 0 0 0 0 0 0 0 0 0 0 0 0 0 0 0 127 0" result="hardAlpha"/>
<feOffset dy="4"/>
<feGaussianBlur stdDeviation="3"/>
<feComposite in2="hardAlpha" operator="out"/>
<feColorMatrix type="matrix" values="0 0 0 0 0.541176 0 0 0 0 0.439216 0 0 0 0 0.0745098 0 0 0 0.14902 0"/>
<feBlend mode="normal" in2="BackgroundImageFix" result="effect1_dropShadow_349_239"/>
<feBlend mode="normal" in="SourceGraphic" in2="effect1_dropShadow_349_239" result="shape"/>
</filter>
<linearGradient id="paint0_linear_349_239" x1="206" y1="2" x2="206" y2="509" gradientUnits="userSpaceOnUse">
<stop stop-color="#DFF2FC"/>
<stop offset="1" stop-color="#E7F5FE"/>
</linearGradient>
<clipPath id="clip0_349_239">
<rect width="21" height="27" fill="white" transform="translate(343 455)"/>
</clipPath>
<clipPath id="clip1_349_239">
<rect width="21" height="27" fill="white" transform="translate(48 455)"/>
</clipPath>
<clipPath id="clip2_349_239">
<rect width="21" height="24" fill="white" transform="translate(196 49)"/>
</clipPath>
</defs>
</svg>
